<svg width="41" height="35" viewBox="0 0 41 35" fill="none" xmlns="http://www.w3.org/2000/svg">
<path d="M39.9167 7.89667C39.5567 7.32286 39.0412 6.84467 38.4205 6.50876C37.7998 6.17285 37.0951 5.99067 36.375 5.98001H9.70835L8.50002 1.64834C8.37794 1.2302 8.10556 0.862399 7.72726 0.604852C7.34896 0.347305 6.88703 0.215184 6.41669 0.230006H2.25002C1.69749 0.230006 1.16758 0.43194 0.776881 0.791385C0.38618 1.15083 0.166687 1.63834 0.166687 2.14667C0.166687 2.655 0.38618 3.14252 0.776881 3.50196C1.16758 3.8614 1.69749 4.06334 2.25002 4.06334H4.83335L10.5834 23.7283C10.7054 24.1465 10.9778 24.5143 11.3561 24.7718C11.7344 25.0294 12.1963 25.1615 12.6667 25.1467H31.4167C31.8014 25.1456 32.1783 25.0465 32.5056 24.8605C32.8328 24.6744 33.0977 24.4086 33.2709 24.0925L40.1042 11.5192C40.4004 10.948 40.5382 10.3183 40.5055 9.68623C40.4728 9.05414 40.2705 8.43933 39.9167 7.89667ZM30.125 21.3133H14.25L10.8542 9.81334H36.375L30.125 21.3133Z" fill="white"/>
<path d="M11.625 34.73C13.3509 34.73 14.75 33.4428 14.75 31.855C14.75 30.2672 13.3509 28.98 11.625 28.98C9.89911 28.98 8.5 30.2672 8.5 31.855C8.5 33.4428 9.89911 34.73 11.625 34.73Z" fill="white"/>
<path d="M32.4584 34.73C34.1843 34.73 35.5834 33.4428 35.5834 31.855C35.5834 30.2672 34.1843 28.98 32.4584 28.98C30.7325 28.98 29.3334 30.2672 29.3334 31.855C29.3334 33.4428 30.7325 34.73 32.4584 34.73Z" fill="white"/>
</svg>
